# xmcd
#
# Track frame offsets:
#	150
#	17411
#	38229
#	55904
#	72975
#	96925
#	118649
#	132468
#	162165
#	178288
#	207825
#	208577
#	209382
#	209868
#	210354
#	211036
#	211625
#	212340
#	212943
#	213681
#	214016
#	214371
#	214698
#	215244
#	215963
#	216640
#	217165
#	239325
#	239966
#	240461
#	241138
#	241450
#	241915
#	242522
#	242860
#	243174
#	243494
#	243944
#	261450
#	262243
#	262982
#	263546
#	263908
#	264228
#	264586
#	264946
#	265447
#	265803
#
# Disc length: 3549 seconds
#
# Revision: 1
# Processed by: cddbd v1.4PL0 Copyright (c) Steve Scherf et al.
# Submitted via: CDmax 2.0
#
DISCID=1b0ddb30
DTITLE=Brother Dave and the Tempted Souls - Smell It Cookin'
DYEAR=1998
DGENRE=Blues
TTITLE0=Goodtime
TTITLE1=Green Chile Stew
TTITLE2=Satellite Ride
TTITLE3=Two Worlds
TTITLE4=Get On With It/So Satisfied
TTITLE5=One Fortunate Moment
TTITLE6=Shaky Bizness
TTITLE7=Hurricane Man
TTITLE8=Mystic Lady
TTITLE9=In the Comfort of Angels
TTITLE10=na
TTITLE11=na
TTITLE12=na
TTITLE13=na
TTITLE14=na
TTITLE15=na
TTITLE16=na
TTITLE17=na
TTITLE18=na
TTITLE19=na
TTITLE20=na
TTITLE21=na
TTITLE22=na
TTITLE23=na
TTITLE24=na
TTITLE25=na
TTITLE26=[shhhhh - hidden bonus tracks] One Fortunate Moment (bohemian mix)
TTITLE27=na
TTITLE28=na
TTITLE29=na
TTITLE30=na
TTITLE31=na
TTITLE32=na
TTITLE33=na
TTITLE34=na
TTITLE35=na
TTITLE36=na
TTITLE37=Satellite Ride (live version)
TTITLE38=na
TTITLE39=na
TTITLE40=na
TTITLE41=na
TTITLE42=na
TTITLE43=na
TTITLE44=na
TTITLE45=na
TTITLE46=na
TTITLE47=na
EXTD=
EXTT0=
EXTT1=
EXTT2=
EXTT3=
EXTT4=
EXTT5=
EXTT6=
EXTT7=
EXTT8=
EXTT9=
EXTT10=
EXTT11=
EXTT12=
EXTT13=
EXTT14=
EXTT15=
EXTT16=
EXTT17=
EXTT18=
EXTT19=
EXTT20=
EXTT21=
EXTT22=
EXTT23=
EXTT24=
EXTT25=
EXTT26=
EXTT27=
EXTT28=
EXTT29=
EXTT30=
EXTT31=
EXTT32=
EXTT33=
EXTT34=
EXTT35=
EXTT36=
EXTT37=
EXTT38=
EXTT39=
EXTT40=
EXTT41=
EXTT42=
EXTT43=
EXTT44=
EXTT45=
EXTT46=
EXTT47=
PLAYORDER=
